<svg width="527.06" height="241.426" viewBox="0 0 139.451 63.877" xmlns="http://www.w3.org/2000/svg"><path d="M59.155 90.609a11.92 11.92 0 0 0-2.397.244 11.71 11.71 0 0 0-4.253 1.806 11.954 11.954 0 0 0-1.734 1.443l-.026.023c-.035.036-.066.076-.1.112-.231.239-.457.483-.668.741a12.048 12.048 0 0 0-2.475 5.217 12.08 12.08 0 0 0-.242 2.42v12.006h5.956V102.64c0-.008-.003-.016-.003-.025a6.078 6.078 0 0 1 .467-2.335c.15-.359.335-.7.548-1.019.191-.284.413-.545.648-.792.028-.03.05-.066.078-.095.015-.015.034-.026.049-.04.256-.254.532-.489.83-.692a5.91 5.91 0 0 1 2.125-.902 5.915 5.915 0 0 1 4.518.902 5.98 5.98 0 0 1 1.604 1.62 6 6 0 0 1 .548 1.018c.15.359.275.734.346 1.126.038.212.24.191.272-.16a13.383 13.383 0 0 1 2.196-6.112c.114-.17.243-.328.365-.492l.1-.137c-.115-.126-.222-.26-.343-.38a12.008 12.008 0 0 0-2.74-2.068 11.794 11.794 0 0 0-4.454-1.387c-.4-.041-.805-.062-1.215-.062z" style="opacity:1;fill:navy;fill-opacity:1;stroke-width:.566699;paint-order:stroke fill markers" transform="translate(-47.26 -65.645)"/><path d="M149.94 90.566a11.92 11.92 0 0 0-2.397.244 11.71 11.71 0 0 0-4.253 1.807 11.953 11.953 0 0 0-1.734 1.442c-.008.009-.018.016-.026.024-.035.035-.066.076-.1.112-.084.087-.162.18-.243.27-.042.046-.085.092-.126.139-.099.112-.205.216-.299.332-.163.2-.31.412-.461.622-.034.047-.07.092-.103.14-.039.055-.083.106-.12.162a12.025 12.025 0 0 0-2.033 6.712 12.258 12.258 0 0 0 .242 2.42 11.993 11.993 0 0 0 1.79 4.292c.038.056.083.107.121.163.033.047.07.092.103.14.15.21.298.422.461.622.094.115.2.22.299.331l.126.14c.115.126.223.26.343.381a12 12 0 0 0 2.74 2.068 11.795 11.795 0 0 0 4.454 1.387 11.916 11.916 0 0 0 4.752-.478 11.742 11.742 0 0 0 2.133-.91c.093-.05.179-.112.27-.165v1.615h5.954v-12.006a12.258 12.258 0 0 0-.242-2.42 12.006 12.006 0 0 0-1.79-4.292c-.037-.056-.081-.106-.12-.162-.032-.047-.068-.092-.102-.14-.15-.21-.299-.422-.462-.622-.094-.115-.2-.22-.298-.331a12.257 12.257 0 0 0-.126-.14c-.115-.127-.223-.26-.344-.382a12.008 12.008 0 0 0-2.74-2.068 11.784 11.784 0 0 0-4.453-1.387c-.4-.04-.805-.062-1.216-.062zm0 5.926a5.996 5.996 0 0 1 2.345.478 5.994 5.994 0 0 1 1.914 1.303 6.096 6.096 0 0 1 1.765 4.299c0 .289-.046.565-.085.843-.017.126-.013.259-.038.383a6.078 6.078 0 0 1-.906 2.174c-.194.29-.42.555-.659.807-.028.029-.048.065-.077.093-.015.016-.034.027-.05.042-.26.257-.539.495-.84.7a5.994 5.994 0 0 1-2.155.917 5.995 5.995 0 0 1-6.21-2.559 6.09 6.09 0 0 1-1.03-3.4 6.16 6.16 0 0 1 .474-2.366c.153-.364.34-.71.556-1.033.194-.29.42-.555.659-.806.028-.03.048-.065.077-.094.015-.015.034-.026.05-.041.26-.257.539-.495.842-.702a6 6 0 0 1 2.154-.914 6.002 6.002 0 0 1 1.214-.124z" style="opacity:1;fill:navy;fill-opacity:1;stroke-width:.566591;paint-order:stroke fill markers" transform="translate(-47.26 -65.645)"/><path d="M78.053 90.733a11.767 11.767 0 0 0-2.364.24c-.381.08-.756.177-1.124.292-.158.05-.308.116-.464.172-.205.074-.413.14-.613.226a11.635 11.635 0 0 0-1.992 1.092 11.784 11.784 0 0 0-1.71 1.42c-.008.01-.018.016-.026.025-.035.035-.066.075-.1.111-.09.093-.173.192-.26.288l-.126.14c-.089.102-.185.196-.271.301-.172.21-.329.434-.486.656-.034.048-.07.092-.103.14-.027.04-.06.076-.086.116a11.85 11.85 0 0 0-1.476 3.098c-.045.145-.077.294-.113.442l-.02.08c-.053.203-.114.405-.156.613-.013.065-.018.133-.03.199-.06.322-.115.646-.148.977a12.086 12.086 0 0 0 0 2.42c.033.332.088.656.148.978.012.066.017.134.03.199.042.208.103.41.156.613.045.174.08.351.133.521.036.117.084.228.124.343.085.251.168.503.27.746a11.831 11.831 0 0 0 1.082 2.01c.027.04.059.077.086.117.033.047.07.091.103.139.157.222.314.445.486.656.086.105.182.2.271.301l.126.14c.12.133.234.272.36.4a11.837 11.837 0 0 0 2.703 2.038 11.631 11.631 0 0 0 3.226 1.189 11.586 11.586 0 0 0 2.364.24c.405 0 .805-.02 1.199-.06.246-.026.486-.073.728-.113.145-.024.294-.038.437-.067.381-.079.756-.177 1.123-.292.335-.105.662-.23.983-.363.031-.013.064-.022.095-.035.093-.04.18-.09.273-.133.254-.116.508-.232.752-.366a11.9 11.9 0 0 0 .967-.592c.198-.136.385-.287.574-.435.109-.084.223-.16.329-.247l.006-.006c.278-.232.543-.478.799-.734l-1.467-1.466-.502-.502-2.087-2.087a5.634 5.634 0 0 1-.798.668c-.015.01-.028.023-.043.033-.1.068-.204.127-.308.188-.063.038-.124.081-.189.117a5.961 5.961 0 0 1-2.255.703c-.04.004-.08.003-.12.006a5.993 5.993 0 0 1-.496.025 6.058 6.058 0 0 1-1.792-.274 5.964 5.964 0 0 1-2.04-1.116 6.087 6.087 0 0 1-1.164-1.292c-.084-.125-.14-.268-.215-.4h16.543c.053-.204.114-.405.156-.614.013-.065.018-.133.03-.198.06-.322.115-.647.148-.978a12.1 12.1 0 0 0 0-2.42 11.573 11.573 0 0 0-.148-.978c-.012-.065-.017-.133-.03-.198-.042-.209-.103-.41-.156-.614-.045-.174-.08-.351-.133-.521-.077-.25-.173-.492-.266-.735-.044-.116-.08-.238-.128-.353-.024-.058-.056-.113-.081-.17a11.824 11.824 0 0 0-.412-.865c-.18-.336-.377-.66-.588-.976-.027-.04-.058-.076-.085-.115-.033-.048-.07-.092-.104-.14a17.185 17.185 0 0 0-.36-.485c-.042-.057-.081-.116-.126-.171-.052-.064-.11-.124-.166-.185a4.918 4.918 0 0 1-.105-.116c-.04-.047-.083-.093-.125-.14-.12-.133-.235-.272-.36-.4a11.835 11.835 0 0 0-.833-.764c-.17-.14-.351-.266-.528-.398-.118-.087-.23-.182-.351-.265-.009-.005-.016-.012-.024-.018a11.703 11.703 0 0 0-1.992-1.091c-.107-.046-.22-.079-.328-.121-.248-.097-.494-.197-.75-.277-.185-.058-.377-.098-.566-.147-.186-.048-.368-.106-.557-.145a11.618 11.618 0 0 0-2.364-.24zm0 5.758a6.04 6.04 0 0 1 1.214.124c.164.034.323.078.482.124.031.01.064.015.095.025a5.924 5.924 0 0 1 1.577.765c.16.11.315.226.464.35.07.06.135.125.203.187.075.068.153.134.224.206.033.033.06.07.092.102.102.108.204.215.297.33.123.15.238.306.347.468.083.125.14.268.215.4H72.842c.075-.132.131-.275.215-.4a5.19 5.19 0 0 1 .313-.417c.11-.134.226-.263.345-.388.028-.03.05-.066.078-.095.015-.015.034-.026.049-.04.13-.13.265-.253.405-.37a5.534 5.534 0 0 1 .934-.637c.124-.068.253-.127.382-.186.05-.022.096-.05.145-.07a5.932 5.932 0 0 1 2.345-.478z" style="opacity:1;fill:navy;fill-opacity:1;paint-order:stroke fill markers" transform="translate(-47.26 -65.645)"/><path d="M174.819 90.567a11.958 11.958 0 0 0-2.397.244 11.829 11.829 0 0 0-1.692.484 11.873 11.873 0 0 0-3.477 2.014 11.59 11.59 0 0 0-.818.75l-.027.024c-.035.036-.065.076-.1.112-.084.087-.161.18-.243.27-.042.046-.084.092-.125.14-.099.11-.205.216-.3.33-.08.1-.159.204-.235.308l-.226.316c-.033.047-.07.091-.102.139-.039.055-.083.106-.12.162a12.233 12.233 0 0 0-.86 1.508 12.05 12.05 0 0 0-1.036 3.376 12.072 12.072 0 0 0-.137 1.828v12.006h5.953v-11.163c-.019-.138-.04-.276-.056-.415a3.702 3.702 0 0 1-.027-.424v-.008a6.267 6.267 0 0 1 .122-1.221 6.087 6.087 0 0 1 .907-2.174c.096-.145.201-.284.312-.417a7.39 7.39 0 0 1 .346-.389c.028-.029.049-.065.077-.094.015-.015.034-.026.05-.04.13-.13.264-.253.405-.37a5.566 5.566 0 0 1 .934-.638 5.955 5.955 0 0 1 3.488-.702 5.963 5.963 0 0 1 3.643 1.75 6.087 6.087 0 0 1 1.764 4.299h5.87a12.066 12.066 0 0 0-.375-3 12.013 12.013 0 0 0-6.363-7.822 11.862 11.862 0 0 0-2.183-.806 11.839 11.839 0 0 0-2.972-.378z" style="opacity:1;fill:navy;fill-opacity:1;stroke-width:.566591;paint-order:stroke fill markers" transform="translate(-47.26 -65.645)"/><path d="M66.106 107.388a12.848 12.848 0 0 1-.348-.958c-.076-.246-.113-.44-.147-.572-.045-.175-.113-.394-.17-.672-.033-.166-.037-.24-.033-.217v-.002a12.87 12.87 0 0 1-.162-1.07c-.044-.437-.064-.88-.064-1.326 0-.447.02-.889.064-1.325.005-.051.016-.094.022-.144l-10.512 11.502 3.586 3.279zm48.015-41.743c-2.487 1.38-2.162 3.602.177 4.911l10.5.024-7.983 12.09.006-.012-1.865 2.793-1.464 2.193-.274.41-1.475 2.209-.272.407-1.465 2.195-.273.408-1.444 2.163-.02.032a19430.29 19430.29 0 0 0-1.737 2.602l-.274.409-1.464 2.194-.272.409-1.476 2.21-.723 1.085-.883 1.324-1.588-2.437-1.452-2.227-.268-.412-1.442-2.212-.27-.413-1.441-2.213-.27-.41-1.44-2.214-.27-.411-1.441-2.212-.269-.412-1.448-2.222-.269-.413-1.441-2.21-3.5-5.37-9.07 9.923c.387-.076.777-.14 1.174-.181a12.917 12.917 0 0 1 5.11.509l2.142-2.345.52.797 1.497 2.298.26.4 1.52 2.332.261.401 1.544 2.368.26.399 1.602 2.459.261.4 1.746 2.68.28.428 2.47 3.79 2.209 3.39 2.34 3.592.365.56.303.464.3-.464.361-.559 1.37-2.117.975-1.464h.001c.495-.744.832-1.253 1.932-2.902l.27-.404 2.517-3.773c.099-.147.191-.287.29-.436.606-.906 1.137-1.703 1.77-2.652.098-.145.174-.26.271-.406l.847-1.268.784-1.175.265-.396 1.563-2.34.264-.396 1.55-2.32.264-.396 1.526-2.285 2.315-3.467.004-.007 7.746-11.729 3.162 9.214c1.941 1.567 4.11 1.119 4.648-1.594l-4.39-12.796-.913-2.66-.162-.107-2.918-.005z" style="opacity:1;fill:#f7b801;fill-opacity:1;paint-order:stroke fill markers" transform="translate(-47.26 -65.645)"/><path d="M84.69 23.549v2.987c-.091-.053-.177-.114-.27-.165a11.794 11.794 0 0 0-4.453-1.387 11.916 11.916 0 0 0-4.753.477c-.372.117-.737.253-1.092.405-.218.092-.425.203-.636.309-.134.067-.273.124-.404.196a11.88 11.88 0 0 0-.981.602c-.286.195-.56.406-.828.625-.028.023-.06.042-.088.066-.084.07-.16.15-.243.223-.195.172-.39.343-.575.528-.008.008-.018.015-.026.024-.035.035-.066.075-.1.111-.085.087-.162.18-.243.27a4.187 4.187 0 0 0-.126.14c-.099.111-.205.216-.3.331-.162.2-.31.413-.46.623l-.023.03c-.027.036-.055.072-.08.109-.039.055-.083.107-.12.163-.026.038-.046.079-.071.117a12.37 12.37 0 0 0-.526.872 12.005 12.005 0 0 0-.9 2.153l-.003.007c-.067.22-.115.447-.17.672-.04.157-.088.311-.12.471a12.09 12.09 0 0 0-.243 2.42 12.258 12.258 0 0 0 .242 2.419 11.993 11.993 0 0 0 .693 2.254c.068.16.151.313.225.47.092.194.176.391.276.579l.015.024c.18.332.373.654.581.966.038.056.083.107.121.162.033.048.07.093.103.14.15.21.298.423.461.622.094.115.2.22.299.332l.126.14c.107.118.21.241.32.356.009.008.015.017.023.025.095.096.2.181.299.274.18.17.355.342.545.5.294.245.6.476.916.692.241.165.495.312.749.459.078.045.152.099.232.142.04.022.082.039.122.06.3.16.604.312.918.446.355.152.72.287 1.093.404.144.045.295.075.442.115.232.062.46.132.697.18a11.763 11.763 0 0 0 2.397.244 11.916 11.916 0 0 0 2.397-.244 11.718 11.718 0 0 0 4.252-1.806 11.947 11.947 0 0 0 1.733-1.44c.009-.01.019-.017.028-.026.034-.035.064-.075.098-.11.085-.088.163-.182.246-.273.042-.046.084-.092.125-.14.098-.11.204-.215.298-.33.164-.2.312-.413.462-.624.034-.047.07-.091.103-.139.038-.055.082-.105.12-.161a12.032 12.032 0 0 0 2.03-6.712v-13.38h-5.862zm-5.94 7.382a5.951 5.951 0 0 1 1.768.27 5.857 5.857 0 0 1 2.011 1.1 6.002 6.002 0 0 1 2.161 4.626v.001a6.151 6.151 0 0 1-.12 1.209 5.972 5.972 0 0 1-.894 2.144 5.088 5.088 0 0 1-.307.411 7.35 7.35 0 0 1-.342.383c-.027.03-.048.065-.076.094-.015.016-.035.026-.05.041-.128.127-.26.249-.399.364a5.463 5.463 0 0 1-.92.628 5.896 5.896 0 0 1-2.224.693 5.983 5.983 0 0 1-1.804-.09 5.765 5.765 0 0 1-.463-.121c-.035-.01-.072-.017-.107-.028a5.884 5.884 0 0 1-2.404-1.46l-.03-.027a6.012 6.012 0 0 1-.316-.351c-.022-.026-.046-.05-.068-.075a6.017 6.017 0 0 1-1.236-2.606 6.038 6.038 0 0 1-.09-1.823 6.062 6.062 0 0 1 .437-1.72 5.74 5.74 0 0 1 .25-.525c.013-.025.03-.048.043-.073.08-.143.163-.285.254-.421l.026-.035c.089-.13.182-.256.282-.376a7.72 7.72 0 0 1 .34-.382c.028-.03.05-.066.078-.095.015-.015.034-.025.049-.04.128-.127.261-.25.4-.365a5.473 5.473 0 0 1 .92-.627c.035-.019.071-.033.106-.051a6.08 6.08 0 0 1 .414-.201 5.867 5.867 0 0 1 2.312-.472z" style="opacity:1;fill:navy;fill-opacity:1;paint-order:stroke fill markers"/><g style="fill:#7678ed;fill-opacity:1"><path d="M91.162 100.935a11.42 11.42 0 0 0-.284.817 11.953 11.953 0 0 0-.495 3.428 12.186 12.186 0 0 0 .223 2.321 11.953 11.953 0 0 0 1.106 3.182 11.768 11.768 0 0 0 1.898 2.676 11.376 11.376 0 0 0 1.634 1.422 10.977 10.977 0 0 0 1.878 1.076 10.616 10.616 0 0 0 3.177.858 10.62 10.62 0 0 0 4.428-.465 10.615 10.615 0 0 0 1.983-.884 10.966 10.966 0 0 0 1.76-1.256 11.376 11.376 0 0 0 1.496-1.577 11.673 11.673 0 0 0 1.187-1.85 11.85 11.85 0 0 0 1.272-4.327 12.206 12.206 0 0 0-.167-3.498 11.964 11.964 0 0 0-.271-1.106c-.068-.231-.155-.453-.236-.678l-1.988 2.978c.008.069.023.135.03.204a9.733 9.733 0 0 1-.128 2.743 9.384 9.384 0 0 1-.492 1.687 9.132 9.132 0 0 1-1.263 2.209 8.776 8.776 0 0 1-1.142 1.208 8.474 8.474 0 0 1-1.34.957 8.166 8.166 0 0 1-1.506.672 7.98 7.98 0 0 1-.704.191l-1.789 2.767-1.807-2.773a7.991 7.991 0 0 1-.68-.185 8.043 8.043 0 0 1-1.504-.672 8.315 8.315 0 0 1-1.34-.957 8.625 8.625 0 0 1-1.142-1.208 8.91 8.91 0 0 1-1.263-2.21 9.24 9.24 0 0 1-.62-2.581 9.757 9.757 0 0 1 0-1.848c.01-.108.032-.212.046-.319zm23.488-1.925.001-.007a11.995 11.995 0 0 1 .902-2.153c.161-.3.34-.589.525-.872-.143-.249-.276-.503-.429-.744l-1.629 2.44c.033.06.072.117.103.178.193.376.363.765.526 1.158zm-27.421-3.799c.122.16.243.321.36.486.033.047.07.092.103.14.027.039.058.075.085.115.21.315.407.64.588.975.15.28.284.572.412.865.052-.092.107-.182.158-.275l-1.604-2.46c-.022.034-.049.066-.071.1-.011.018-.02.037-.031.054z" style="opacity:1;fill:#7678ed;fill-opacity:1;paint-order:stroke fill markers" transform="translate(-47.26 -65.645)"/><path d="M117.579 111.037c-.111-.115-.213-.239-.321-.357-.042-.046-.085-.092-.126-.14-.099-.111-.205-.216-.299-.331-.163-.2-.31-.413-.46-.623l-.104-.139c-.038-.056-.083-.106-.12-.163a12.038 12.038 0 0 1-.581-.965 15.807 15.807 0 0 1-1.444 4.188 15.472 15.472 0 0 1-1.558 2.442 15.068 15.068 0 0 1-1.96 2.072 14.563 14.563 0 0 1-2.302 1.643 14.037 14.037 0 0 1-2.587 1.155 13.701 13.701 0 0 1-5.757.605 13.662 13.662 0 0 1-4.137-1.118 14.038 14.038 0 0 1-2.452-1.406 14.563 14.563 0 0 1-2.138-1.865 15.074 15.074 0 0 1-1.766-2.265 15.468 15.468 0 0 1-1.334-2.603 15.807 15.807 0 0 1-.844-2.884c-.097-.5-.17-1.01-.22-1.528a16.675 16.675 0 0 1-.056-1.184h-2.655c.003.177.004.353.013.528a18.888 18.888 0 0 0 .323 2.687c.047.24.101.479.157.716l1.467 1.466c-.256.257-.521.502-.8.734.057.15.11.301.17.45a18.36 18.36 0 0 0 1.572 3.05 18.052 18.052 0 0 0 2.083 2.664 17.575 17.575 0 0 0 2.527 2.2 17.196 17.196 0 0 0 2.145 1.302 16.664 16.664 0 0 0 2.328.968 16.3 16.3 0 0 0 11.75-.607 16.666 16.666 0 0 0 2.902-1.663 17.26 17.26 0 0 0 2.527-2.2 17.84 17.84 0 0 0 2.083-2.663 18.222 18.222 0 0 0 1.878-3.867c.034-.098.063-.2.096-.3z" style="opacity:1;fill:#7678ed;fill-opacity:1;paint-order:stroke fill markers" transform="translate(-47.26 -65.645)"/><path d="M123.566 98.184c-.035.015-.071.026-.106.041a6.282 6.282 0 0 0-.49.245 5.517 5.517 0 0 0-.83.563c-.015.012-.034.02-.05.033-.028.024-.049.053-.077.077-.117.1-.232.204-.34.311-.1.098-.193.2-.282.306.05.15.104.3.149.452a15.584 15.584 0 0 1 .54 2.617 15.556 15.556 0 0 1 .08 2.726c-.01.148-.026.293-.04.44a5.716 5.716 0 0 0 .85.574 6.28 6.28 0 0 0 1.01.45c.177.062.36.116.545.164.035.009.072.014.107.023.028-.182.06-.362.08-.545a17.059 17.059 0 0 0-.145-5.027 17.147 17.147 0 0 0-.772-2.87c-.07-.195-.151-.387-.229-.58z" style="opacity:1;fill:#7678ed;fill-opacity:1;stroke-width:.902364;paint-order:stroke fill markers" transform="translate(-47.26 -65.645)"/><path d="M118.533 93.242c.268-.218.542-.43.828-.625.317-.216.644-.417.981-.601.131-.072.27-.13.405-.197-.047-.074-.09-.151-.137-.225a24.513 24.513 0 0 0-1.302-1.838l-1.55 2.322c.024.033.05.065.073.098.197.278.387.562.572.85.045.071.086.145.13.216zm-36.243-1.7c.108.043.221.076.328.121a11.634 11.634 0 0 1 1.992 1.092l.024.018c.131-.2.263-.402.4-.597.073-.102.15-.2.224-.3l-1.422-2.183-1.138 1.245c-.138.2-.275.4-.408.604z" style="opacity:1;fill:#7678ed;fill-opacity:1;paint-order:stroke fill markers" transform="translate(-47.26 -65.645)"/><path d="M81.387 99.089c.063-.175.119-.694.188-.866-.067-.05-.132-.103-.203-.15a6.114 6.114 0 0 0-.96-.529 6.662 6.662 0 0 0-1.08-.371c-.032-.008-.065-.013-.096-.02l-.035.074a17.574 17.574 0 0 0-.673 1.842" style="opacity:1;fill:#7678ed;fill-opacity:1;stroke-width:.89832;paint-order:stroke fill markers" transform="translate(-47.26 -65.645)"/><path d="M80.829 105.922h-2.646c.004.212.007.424.02.634a13.7 13.7 0 0 0 .206 1.628c.04-.002.08-.001.12-.004a7.927 7.927 0 0 0 1.175-.18 7.38 7.38 0 0 0 1.08-.34c.065-.027.126-.058.19-.086-.016-.098-.036-.195-.048-.293a13.086 13.086 0 0 1-.08-.818c-.011-.18-.013-.36-.017-.54z" style="opacity:1;fill:#7678ed;fill-opacity:1;stroke-width:.860157;paint-order:stroke fill markers" transform="translate(-47.26 -65.645)"/><path d="M122.918 114.153c-.147-.04-.299-.07-.443-.114a11.744 11.744 0 0 1-1.093-.405 11.795 11.795 0 0 1-.918-.446c-.057.153-.11.308-.17.46a22.21 22.21 0 0 1-1.891 3.686 21.73 21.73 0 0 1-2.503 3.207 21.092 21.092 0 0 1-2.228 2.04 20.583 20.583 0 0 1-2.491 1.687 20.01 20.01 0 0 1-2.719 1.297 19.543 19.543 0 0 1-4.94 1.2 19.613 19.613 0 0 1-7.198-.57 19.48 19.48 0 0 1-3.757-1.45 20.01 20.01 0 0 1-2.57-1.56 20.59 20.59 0 0 1-2.32-1.927 21.116 21.116 0 0 1-2.642-3.074 21.735 21.735 0 0 1-2.052-3.574 22.213 22.213 0 0 1-.41-.963c-.018-.043-.033-.088-.05-.131a11.56 11.56 0 0 1-.983.363 11.63 11.63 0 0 1-1.123.292c-.143.03-.292.043-.437.067.05.131.095.264.147.394a24.9 24.9 0 0 0 2.772 5.089 24.381 24.381 0 0 0 2.98 3.459 23.662 23.662 0 0 0 2.617 2.17 23.023 23.023 0 0 0 3.927 2.252 22.275 22.275 0 0 0 4.343 1.423 21.956 21.956 0 0 0 4.667.497 22.318 22.318 0 0 0 3.526-.282 21.924 21.924 0 0 0 5.483-1.638 22.446 22.446 0 0 0 2.99-1.617 23.025 23.025 0 0 0 2.716-2.04 23.68 23.68 0 0 0 3.132-3.304 24.384 24.384 0 0 0 2.486-3.882 24.787 24.787 0 0 0 .972-2.127c.064-.157.12-.32.18-.479zm-23.542-13.728 1.476 2.265c.038-.01.072-.028.11-.036a2.222 2.222 0 0 1 .94 0c.054.012.102.035.153.05l1.499-2.246c-.054-.026-.105-.056-.16-.08a4.821 4.821 0 0 0-3.924 0c-.032.014-.062.032-.094.047zM95.93 95.14l1.438 2.205c.024-.014.046-.031.07-.045a8.17 8.17 0 0 1 1.505-.671 7.97 7.97 0 0 1 4.98 0c.262.086.52.185.77.297 1.5.67 2.504-1.773 1.05-2.422a10.618 10.618 0 0 0-3.177-.858 10.63 10.63 0 0 0-4.428.466 10.62 10.62 0 0 0-1.983.884c-.077.044-.149.098-.225.144zm-3.424-5.253 1.438 2.206c.206-.133.406-.275.618-.397a14.038 14.038 0 0 1 2.587-1.154 13.693 13.693 0 0 1 5.756-.606 13.674 13.674 0 0 1 4.138 1.118c4.42 1.975 4.43-.913 1.05-2.423a16.399 16.399 0 0 0-3.21-1.052 16.24 16.24 0 0 0-4.332-.343 16.353 16.353 0 0 0-2.568.343 16.253 16.253 0 0 0-3.21 1.052c-.512.229-1.01.483-1.494.76-.266.153-.516.33-.773.496zm-3.433-5.267 1.438 2.207c.106-.07.21-.145.317-.214a20.189 20.189 0 0 1 2.646-1.431 19.678 19.678 0 0 1 3.84-1.258 19.401 19.401 0 0 1 5.17-.411 19.497 19.497 0 0 1 8.697 2.58c2.485 1.426 3.826-.847 1.282-2.306a22.61 22.61 0 0 0-3.071-1.465 22.146 22.146 0 0 0-4.433-1.201 21.994 21.994 0 0 0-3.526-.282 22.288 22.288 0 0 0-3.527.282 21.957 21.957 0 0 0-5.483 1.638 22.425 22.425 0 0 0-2.99 1.616c-.122.079-.24.164-.36.245z" style="opacity:1;fill:#7678ed;fill-opacity:1;paint-order:stroke fill markers" transform="translate(-47.26 -65.645)"/></g></svg>